<svg id="Layer_2" enable-background="new 0 0 64 64" height="512" viewBox="0 0 64 64" width="512" xmlns="http://www.w3.org/2000/svg"><circle cx="32" cy="35" fill="#64ddf3" r="2"/><circle cx="47" cy="26" fill="#64ddf3" r="2"/><circle cx="17" cy="15" fill="#ffd56c" r="4"/><path d="m52 59c1.1 0 2 .9 2 2 0 .55-.22 1.05-.59 1.41-.36.37-.86.59-1.41.59h-2-38c-1.1 0-2-.9-2-2 0-.55.22-1.05.59-1.41.36-.37.86-.59 1.41-.59h2 36z" fill="#f42b4a"/><path d="m54 61c0 .55-.22 1.05-.59 1.41-.36.37-.86.59-1.41.59h-40c-1.1 0-2-.9-2-2z" fill="#c03"/><path d="m50 55v4h-36v-4c0-.67.04-1.34.11-1.99.99-9 8.62-16.01 17.89-16.01 9.94 0 18 8.06 18 18z" fill="#ffd56c"/><path d="m34.44 37.17c-.05.91-.23 1.82-.54 2.7-2.14 6.02-9.82 8.97-18.19 7.48 2.87-6.11 9.08-10.35 16.29-10.35.83 0 1.64.06 2.44.17z" fill="#ffe6a7"/><path d="m14 53 .11.01c-.07.65-.11 1.32-.11 1.99v4h-2c-.55 0-1.05.22-1.41.59-.37.36-.59.86-.59 1.41 0 1.1.9 2 2 2h-1-9c-.55 0-1-.45-1-1v-8h5c1.1 0 2-.9 2-2v-6c0-1.1-.9-2-2-2h-5v-2.5c0-1.56.32-3.1.93-4.53l.07.03s2.5-.5 8-6l.3-.02c.33 1.46.92 2.85 1.76 4.11 1.26 1.9 1.94 4.13 1.94 6.41z" fill="#64ddf3"/><path d="m14.11 53.01c-.07.65-.11 1.32-.11 1.99v4h-2c-.55 0-1.05.22-1.41.59-.37.36-.59.86-.59 1.41v-17.785c0-1.456-.339-2.893-.99-4.196-.558-1.115-.106-2.471 1.01-3.029 1.166-.583 2.582-.065 3.09 1.136.46 1.092.89 2.483.89 3.874v12z" fill="#3bb0ee"/><path d="m63 63h-2-7-1c1.38 0 2.63-.56 3.54-1.46.9-.91 1.46-2.16 1.46-3.54 0 2.76 2.24 5 5 5z" fill="#fcfcfc"/><path d="m62.36 39.97.64 7.03c0 2.76-2.24 5-5 5-1.38 0-2.63-.56-3.54-1.46-.9-.91-1.46-2.16-1.46-3.54l.64-7.03.36.03h8z" fill="#f42b4a"/><path d="m62 36 .36 3.97-.36.03h-8l-.36-.03.36-3.97h4z" fill="#fcfcfc"/><path d="m63 47c0 2.76-2.24 5-5 5-1.38 0-2.63-.56-3.54-1.46-.58-.58-1.01-1.31-1.25-2.11.56.37 1.16.57 1.79.57 2.76 0 5-3.81 5-8.5 0-.17 0-.34-.02-.5h2.02l.36-.03z" fill="#c03"/><path d="m62.36 39.97-.36.03h-2.02c-.04-1.46-.31-2.83-.74-4h2.76z" fill="#d4d4d4"/><path d="m54.38 13.58s3.91-.35 3.55 2.84c-.43 3.9-7.45 1.07-7.45 1.07s-2.83-7.02 1.06-7.46c3.2-.35 2.84 3.55 2.84 3.55z" fill="#f42b4a"/><path d="m50 55v4h-36v-4c0-.67.04-1.34.11-1.99.05-.44.11-.87.19-1.3 1.56.99 3.3 1.84 5.18 2.51 9.88 3.52 19.92.67 22.42-6.35.94-2.65.68-5.51-.55-8.24 5.19 3.15 8.65 8.86 8.65 15.37z" fill="#f2a24c"/><path d="m40.96 3c4.88 6.1-9 12-9 12s-13.88-5.9-9-12c4-5 9 1 9 1s5-6 9-1z" fill="#f42b4a"/><path d="m31.96 15s-9-3.83-9.95-8.51c1.22 2.32 3.48 3.98 6.16 4.4.43.08.88.11 1.33.11 4.67 0 8.45-3.76 8.5-8.41v-.09c0-.49-.04-.98-.12-1.45 1.03.14 2.08.71 3.08 1.95 4.88 6.1-9 12-9 12z" fill="#c03"/><path d="m11 21v4h-1-5-1v-4h1 5z" fill="#ffd56c"/><path d="m10.3 30.98-.3.02c-5.5 5.5-8 6-8 6l-.07-.03c.28-.65.61-1.28 1.01-1.88 1.34-2.01 2.06-4.38 2.06-6.8v-3.29h5v3.29c0 .91.1 1.81.3 2.69z" fill="#ffd56c"/><path d="m8 21h3v4h-3z" fill="#f2a24c"/><path d="m10.3 30.98-.3.02c-5.5 5.5-8 6-8 6l-.07-.03c.28-.65.61-1.28 1.01-1.88 1.02-1.54 1.69-3.28 1.94-5.1 1.73-.06 3.12-1.49 3.12-3.24v-1.75h2v3.29c0 .91.1 1.81.3 2.69z" fill="#f2a24c"/><path d="m5 17h5v4h-5z" fill="#f42b4a"/><path d="m8 17h2v4h-2z" fill="#c03"/><path d="m8 46v6c0 1.1-.9 2-2 2h-5v-10h5c1.1 0 2 .9 2 2z" fill="#fcfcfc"/><g fill="#f88092"><circle cx="57.75" cy="42.583" r=".583"/><circle cx="57.75" cy="46.667" r=".583"/><circle cx="59.5" cy="44.917" r=".583"/><circle cx="56.292" cy="44.625" r=".292"/><circle cx="59.792" cy="42.292" r=".292"/><circle cx="56.875" cy="48.708" r=".292"/><circle cx="60.375" cy="48.125" r=".292"/></g><g fill="#fcfcfc"><g><path d="m5.405 38.407c-.431-.394-1.096-.427-1.523 0l-.317.317c-.398.398-.43 1.13 0 1.523.431.394 1.096.427 1.523 0l.317-.317c.399-.399.43-1.131 0-1.523z"/><path d="m3.057 41.009c-.327-.327-.835.18-.508.508.327.326.835-.181.508-.508z"/></g><g><path d="m23.405 44.407c-.431-.394-1.096-.427-1.523 0l-.317.317c-.398.398-.43 1.13 0 1.523.431.394 1.096.427 1.523 0l.317-.317c.399-.399.43-1.131 0-1.523z"/><path d="m21.057 47.009c-.327-.327-.835.18-.508.508.327.326.835-.181.508-.508z"/></g><g><path d="m27.405 3.407c-.431-.394-1.096-.427-1.523 0l-.317.317c-.398.398-.43 1.13 0 1.523.431.394 1.096.427 1.523 0l.317-.317c.399-.399.43-1.131 0-1.523z"/><path d="m25.057 6.009c-.327-.327-.835.18-.508.508.327.326.835-.181.508-.508z"/></g></g><g fill="#333"><path d="m63 62c-2.206 0-4-1.794-4-4v-5.083c2.834-.479 5-2.958 4.996-6.007l-1-11c-.047-.515-.478-.91-.996-.91h-8c-.518 0-.949.395-.996.91l-1.004 11.09c0 2.968 2.166 5.439 5 5.917v5.083c0 1.493-.832 2.782-2.047 3.469.024-.154.047-.308.047-.469 0-1.654-1.346-3-3-3h-1v-3c0-9.546-7.083-17.447-16.265-18.78.167-.374.265-.785.265-1.22 0-.552-.447-1-1-1s-1 .448-1 1c0 .551-.448 1-1 1s-1-.449-1-1 .448-1 1-1c.553 0 1-.448 1-1s-.447-1-1-1c-1.654 0-3 1.346-3 3 0 .498.134.961.349 1.375-.235.208-.38.51-.343.846.061.548.553.941 1.104.884.621-.07 1.257-.105 1.89-.105 9.374 0 17 7.626 17 17v3h-34v-3c0-7.532 5.049-14.25 12.277-16.335.53-.153.837-.708.684-1.238-.153-.529-.702-.836-1.238-.684-8.08 2.331-13.723 9.839-13.723 18.257v3h-1c-1.654 0-3 1.346-3 3 0 .352.072.686.184 1h-7.184v-7h4c1.654 0 3-1.346 3-3v-6c0-1.654-1.346-3-3-3h-4v-1.502c0-1.261.227-2.496.658-3.66.93-.346 3.223-1.494 7.087-5.191.366 1.05.857 2.058 1.483 2.997 1.159 1.739 1.772 3.763 1.772 5.854v3.502c0 .552.447 1 1 1s1-.448 1-1v-3.502c0-2.487-.729-4.895-2.108-6.963-1.238-1.857-1.892-4.017-1.892-6.248v-2.287c.553 0 1-.448 1-1v-4c0-.552-.447-1-1-1v-3c0-.552-.447-1-1-1h-5c-.553 0-1 .448-1 1v3c-.553 0-1 .448-1 1v4c0 .552.447 1 1 1v2.287c0 2.231-.654 4.392-1.892 6.249-1.379 2.067-2.108 4.475-2.108 6.962v20.502c0 .204.04.398.097.583-.059.128-.097.267-.097.417 0 .552.447 1 1 1h1 9 1 38 2 1 1 9c.553 0 1-.448 1-1s-.447-1-1-1zm-57-17c.552 0 1 .449 1 1v6c0 .551-.448 1-1 1h-4v-8zm-1.564-10.481c1.022-1.915 1.564-4.043 1.564-6.232v-2.287h1c.553 0 1-.448 1-1s-.447-1-1-1h-2v-2h5v2c-.553 0-1 .448-1 1v3.287c0 .716.062 1.424.175 2.122-1.995 1.983-3.565 3.273-4.739 4.11zm1.564-16.519h3v2h-3zm44 44h-38c-.552 0-1-.449-1-1s.448-1 1-1h2 36 2c.552 0 1 .449 1 1s-.448 1-1 1zm11.087-25 .183 2h-6.538l.182-2zm-7.091 10.09.554-6.09h6.903l.547 6c0 2.206-1.794 4-4 4s-4-1.794-4.004-3.91zm3.473 14.91c.192-.215.37-.445.531-.687.161.242.339.471.531.687z"/><path d="m31.568 15.92c.125.054.259.08.392.08s.267-.026.392-.08c.376-.16 9.229-3.976 10.492-8.988.404-1.604.033-3.137-1.103-4.557-1.242-1.553-2.711-2.348-4.366-2.365-.018 0-.034 0-.051 0-2.3 0-4.313 1.557-5.364 2.549-1.051-.992-3.064-2.549-5.364-2.549-.017 0-.034 0-.051 0-1.655.017-3.124.812-4.366 2.365-1.136 1.42-1.507 2.953-1.103 4.557 1.264 5.013 10.116 8.828 10.492 8.988zm-7.827-12.295c.858-1.074 1.78-1.602 2.818-1.614h.037c2.36 0 4.574 2.605 4.596 2.631.381.452 1.155.452 1.534 0 .022-.026 2.236-2.631 4.597-2.631h.037c1.038.012 1.96.54 2.818 1.614.735.918.973 1.839.727 2.818-.803 3.188-6.397 6.31-8.945 7.465-2.548-1.153-8.139-4.271-8.944-7.464-.247-.979-.01-1.901.725-2.819z"/><path d="m50.104 18.415c.356.144 2.721 1.063 4.918 1.063.888 0 1.749-.15 2.438-.562.842-.503 1.349-1.327 1.466-2.382.158-1.43-.375-2.308-.851-2.793-.782-.798-1.891-1.062-2.71-1.141-.078-.819-.343-1.928-1.141-2.71-.484-.476-1.37-1.01-2.792-.85-1.056.117-1.88.624-2.383 1.466-1.431 2.396.299 6.854.5 7.355.102.253.303.452.555.554zm.664-6.883c.12-.202.33-.442.886-.504.786-.085 1.073.195 1.169.288.563.548.596 1.789.563 2.177-.026.296.079.588.289.798s.501.314.798.289c.313-.03 1.608-.017 2.175.562.093.095.378.385.29 1.172-.062.555-.301.764-.503.885-1.073.644-3.586.089-5.181-.485-.514-1.445-1.148-4.075-.486-5.182z"/><path d="m47 29c1.654 0 3-1.346 3-3 0-.552-.447-1-1-1s-1 .448-1 1c0 .551-.448 1-1 1s-1-.449-1-1 .448-1 1-1c.553 0 1-.448 1-1s-.447-1-1-1c-1.654 0-3 1.346-3 3s1.346 3 3 3z"/><path d="m44.867 53.143c.072.498.5.857.989.857.047 0 .095-.003.144-.01.547-.079.926-.585.848-1.132-.215-1.488-.65-2.93-1.296-4.287-.237-.499-.834-.71-1.333-.473s-.711.834-.474 1.333c.56 1.174.938 2.423 1.122 3.712z"/><path d="m32 40c-.553 0-1 .448-1 1s.447 1 1 1c3.841 0 7.468 1.692 9.95 4.644.198.235.482.356.767.356.227 0 .455-.077.643-.235.423-.355.478-.986.122-1.409-2.865-3.404-7.049-5.356-11.482-5.356z"/><path d="m13 16h.75c1.24 0 2.25 1.009 2.25 2.25v.75c0 .552.447 1 1 1s1-.448 1-1v-.75c0-1.241 1.01-2.25 2.25-2.25h.75c.553 0 1-.448 1-1s-.447-1-1-1h-.75c-1.24 0-2.25-1.009-2.25-2.25v-.75c0-.552-.447-1-1-1s-1 .448-1 1v.75c0 1.241-1.01 2.25-2.25 2.25h-.75c-.553 0-1 .448-1 1s.447 1 1 1zm4-1.544c.165.198.346.379.544.544-.198.165-.379.346-.544.544-.165-.198-.346-.379-.544-.544.198-.165.379-.346.544-.544z"/><path d="m26 26v4c0 .552.447 1 1 1s1-.448 1-1v-4c0-.552-.447-1-1-1s-1 .448-1 1z"/><path d="m30 21c-.553 0-1 .448-1 1 0 6.234 2.059 8.473 2.293 8.707.193.193.445.29.697.29.251 0 .503-.095.698-.284.393-.379.402-1.009.03-1.408-.016-.018-1.718-1.905-1.718-7.305 0-.552-.447-1-1-1z"/><path d="m38.65 16.241c-.418-.359-1.049-.311-1.409.108-6.419 7.489-2.117 14.139-2.073 14.206.192.289.508.444.83.444.189 0 .382-.054.552-.166.459-.303.586-.923.285-1.383-.146-.222-3.48-5.493 1.924-11.798.36-.421.311-1.052-.109-1.411z"/></g></svg>