<svg id="Capa_1" enable-background="new 0 0 512.019 512.019" height="512" viewBox="0 0 512.019 512.019" width="512" xmlns="http://www.w3.org/2000/svg"><path d="m222.013 422.729c-17.158-17.158-15.677-45.399 3.182-60.669l99.891-80.879 38.475 38.475-80.879 99.891c-15.269 18.859-43.511 20.34-60.669 3.182z" fill="#89d47f"/><path d="m325.085 281.182-31.087 25.17c4.731 9.264 10.948 17.959 18.69 25.702 7.653 7.653 16.319 13.917 25.679 18.719l25.193-31.115z" fill="#5ec783"/><path d="m476.576 224.817-33.084 33.084c-4.624 4.624-12.122 4.624-16.746 0-4.624-4.624-4.624-12.122 0-16.746l33.084-33.084c6.395-6.395 6.395-16.763 0-23.158-6.395-6.395-16.763-6.395-23.158 0l-33.084 33.084c-4.624 4.624-12.122 4.624-16.746 0-4.624-4.624-4.624-12.122 0-16.746l33.084-33.084c6.395-6.395 6.395-16.763 0-23.158-6.395-6.395-16.763-6.395-23.158 0l-63.36 63.361c-28.433 28.433-28.433 74.532 0 102.966 28.433 28.433 74.533 28.433 102.966 0l63.36-63.361c6.395-6.395 6.395-16.763 0-23.158-6.395-6.395-16.763-6.395-23.158 0z" fill="#a3defe"/><path d="m371.181 170.596-37.773 37.773c-28.433 28.433-28.433 74.532 0 102.966 18.434 18.434 44.29 24.901 67.947 19.433-36.476-26.417-49.285-100.765-30.174-160.172z" fill="#7acefa"/><path d="m258.238 422.729c-17.158 17.158-45.399 15.677-60.669-3.181l-80.878-99.891 38.475-38.475 99.891 80.879c18.859 15.269 20.34 43.51 3.181 60.668z" fill="#e8899e"/><path d="m116.691 319.657 25.17 31.087c9.264-4.731 17.959-10.948 25.702-18.69 7.653-7.653 13.917-16.319 18.719-25.679l-31.115-25.193z" fill="#de5c6e"/><path d="m146.844 208.369c-28.433-28.433-97.989-51.889-126.422-23.456s-4.977 97.989 23.456 126.422 74.533 28.433 102.966 0 28.433-74.533 0-102.966z" fill="#a3defe"/><path d="m129.4 293.89c-18.769 18.769-49.308 18.769-68.077 0-11.146-11.146-21.798-31.846-26.505-51.509-4.405-18.402-3.237-33.738 3.049-40.024s21.621-7.454 40.022-3.049c19.664 4.707 40.364 15.359 51.51 26.505 18.769 18.77 18.77 49.308.001 68.077z" fill="#7acefa"/><path d="m230.073 190.176-35.011 12.45c-14.442 5.135-29.537-5.832-29.115-21.154l1.022-37.144c.138-5.016-1.457-9.926-4.517-13.903l-22.659-29.45c-9.347-12.148-3.581-29.893 11.121-34.227l35.642-10.507c4.813-1.419 8.99-4.453 11.826-8.592l21.006-30.651c8.665-12.643 27.324-12.643 35.989 0l21.006 30.651c2.837 4.139 7.013 7.174 11.826 8.592l35.642 10.507c14.702 4.334 20.468 22.079 11.121 34.227l-22.659 29.45c-3.06 3.977-4.655 8.887-4.517 13.903l1.022 37.144c.421 15.322-14.674 26.289-29.116 21.154l-35.011-12.45c-4.728-1.681-9.891-1.681-14.618 0z" fill="#f7ef87"/><path d="m195.062 202.626 35.011-12.45c4.727-1.681 9.89-1.681 14.618 0l8.47 3.012c-37.615-41.217-48.784-123.526-38.818-168.83l-15.962 23.29c-2.837 4.139-7.013 7.174-11.826 8.592l-35.642 10.507c-14.702 4.334-20.468 22.079-11.121 34.227l22.66 29.45c3.06 3.977 4.655 8.887 4.517 13.903l-1.022 37.145c-.422 15.322 14.673 26.289 29.115 21.154z" fill="#efd176"/><ellipse cx="183.511" cy="111.304" fill="#eda1ab" rx="19.877" ry="15.829"/><ellipse cx="291.252" cy="111.304" fill="#eda1ab" rx="19.877" ry="15.829"/><path d="m253.408 99.142c0-9.904-7.175-10.835-16.026-10.835s-16.026.931-16.026 10.835 7.175 17.933 16.026 17.933c8.85 0 16.026-8.029 16.026-17.933z" fill="#4e5660"/><path d="m83.945 495.126-23.941 8.513c-9.875 3.512-20.198-3.988-19.91-14.465l.699-25.4c.094-3.43-.997-6.787-3.089-9.507l-15.495-20.138c-6.392-8.307-2.449-20.442 7.605-23.405l24.373-7.185c3.291-.97 6.147-3.045 8.087-5.876l14.365-20.96c5.925-8.646 18.685-8.646 24.61 0l14.365 20.96c1.94 2.83 4.796 4.905 8.087 5.876l24.373 7.185c10.053 2.964 13.996 15.098 7.605 23.405l-15.495 20.138c-2.092 2.719-3.183 6.077-3.089 9.507l.699 25.4c.288 10.477-10.034 17.977-19.91 14.465l-23.941-8.513c-3.235-1.149-6.765-1.149-9.998 0z" fill="#f7ef87"/><path d="m37.704 454.268c2.092 2.719 3.183 6.077 3.089 9.507l-.699 25.4c-.288 10.477 10.034 17.977 19.91 14.465l23.941-8.513c3.233-1.15 6.763-1.15 9.996 0l23.941 8.513c4.931 1.754 9.973.761 13.751-1.976-36.261-12.487-61.308-88.527-50.772-129.063-1.602 1.034-3.05 2.392-4.222 4.104l-14.365 20.96c-1.94 2.83-4.796 4.906-8.087 5.876l-24.373 7.185c-10.053 2.964-13.996 15.098-7.605 23.405z" fill="#efd176"/><path d="m380.822 495.126-23.941 8.513c-9.875 3.512-20.198-3.988-19.91-14.465l.699-25.4c.094-3.43-.997-6.787-3.089-9.507l-15.495-20.138c-6.391-8.307-2.449-20.442 7.605-23.405l24.373-7.185c3.291-.97 6.147-3.045 8.087-5.876l14.365-20.96c5.925-8.646 18.684-8.646 24.61 0l14.365 20.96c1.94 2.83 4.796 4.905 8.087 5.876l24.373 7.185c10.054 2.964 13.996 15.098 7.605 23.405l-15.495 20.138c-2.092 2.719-3.183 6.077-3.089 9.507l.699 25.4c.288 10.477-10.034 17.977-19.91 14.465l-23.941-8.513c-3.235-1.149-6.765-1.149-9.998 0z" fill="#f7ef87"/><path d="m334.581 454.268c2.092 2.719 3.183 6.077 3.089 9.507l-.699 25.4c-.288 10.477 10.034 17.977 19.91 14.465l23.941-8.513c3.233-1.15 6.763-1.15 9.996 0l23.941 8.513c4.931 1.754 9.973.761 13.751-1.976-36.261-12.487-61.308-88.527-50.772-129.063-1.602 1.034-3.049 2.392-4.222 4.104l-14.365 20.96c-1.94 2.83-4.796 4.906-8.087 5.876l-24.373 7.185c-10.053 2.964-13.996 15.098-7.605 23.405z" fill="#efd176"/><path d="m237.382 124.574c12.972 0 23.525-11.409 23.525-25.433 0-18.335-17.091-18.335-23.525-18.335s-23.526 0-23.526 18.335c0 14.024 10.553 25.433 23.526 25.433zm-8.171-27.731c.302-.312 1.701-1.036 8.171-1.036 6.469 0 7.868.725 8.168 1.034.004.005.357.534.357 2.301 0 5.753-3.824 10.433-8.525 10.433s-8.526-4.68-8.526-10.433c0-1.767.353-2.296.355-2.299zm-42.377 3.062c4.143 0 7.5-3.357 7.5-7.5v-8.116c0-4.143-3.357-7.5-7.5-7.5s-7.5 3.357-7.5 7.5v8.116c0 4.143 3.358 7.5 7.5 7.5zm101.095 0c4.143 0 7.5-3.357 7.5-7.5v-8.116c0-4.143-3.357-7.5-7.5-7.5s-7.5 3.357-7.5 7.5v8.116c0 4.143 3.357 7.5 7.5 7.5zm159.14 303.625-24.371-7.184c-1.633-.482-3.061-1.52-4.022-2.923l-14.364-20.96c-4.183-6.102-11.095-9.744-18.492-9.744-7.396 0-14.309 3.643-18.491 9.744l-14.364 20.961c-.962 1.402-2.39 2.44-4.02 2.921l-24.373 7.185c-7.095 2.092-12.695 7.54-14.981 14.574-2.286 7.035-.958 14.735 3.553 20.599l15.494 20.137c1.038 1.35 1.584 3.028 1.537 4.728l-.699 25.4c-.203 7.394 3.248 14.404 9.233 18.752 3.884 2.822 8.505 4.282 13.176 4.282 2.525 0 5.066-.427 7.512-1.297l23.941-8.514c1.603-.57 3.367-.57 4.971 0l23.94 8.514c6.971 2.48 14.705 1.361 20.689-2.985 5.983-4.348 9.435-11.358 9.231-18.752l-.699-25.399c-.046-1.701.499-3.381 1.536-4.728l15.495-20.138c4.511-5.863 5.839-13.563 3.553-20.6-2.289-7.034-7.89-12.482-14.985-14.573zm-.459 26.027-15.496 20.139c-3.133 4.073-4.781 9.146-4.641 14.285l.699 25.4c.068 2.483-1.045 4.744-3.055 6.204-2.009 1.461-4.505 1.819-6.846.988l-23.941-8.514c-2.422-.861-4.966-1.292-7.51-1.292-2.545 0-5.09.431-7.511 1.292l-23.941 8.514c-2.34.833-4.836.472-6.846-.988s-3.123-3.721-3.055-6.204l.699-25.399c.142-5.137-1.506-10.211-4.642-14.287l-15.495-20.138c-1.515-1.969-1.943-4.453-1.176-6.816.768-2.362 2.574-4.119 4.957-4.821l24.374-7.186c4.931-1.454 9.246-4.59 12.151-8.829l14.364-20.96c1.404-2.049 3.635-3.225 6.118-3.225 2.484 0 4.715 1.176 6.119 3.225l14.364 20.959c2.905 4.24 7.221 7.376 12.153 8.831l24.373 7.185c2.382.702 4.189 2.459 4.956 4.821.771 2.361.343 4.846-1.172 6.816zm-290.104-294.559c2.002 2.602 3.055 5.842 2.965 9.124l-1.021 37.145c-.267 9.669 4.247 18.836 12.072 24.521 5.079 3.69 11.122 5.601 17.229 5.601 3.303 0 6.625-.559 9.823-1.696l35.011-12.45c3.093-1.099 6.5-1.1 9.593 0l35.011 12.45c9.113 3.24 19.227 1.782 27.053-3.904 7.825-5.686 12.339-14.853 12.072-24.521l-1.021-37.145c-.09-3.281.963-6.521 2.965-9.124l22.659-29.449c5.898-7.667 7.636-17.736 4.646-26.935-2.989-9.199-10.313-16.324-19.591-19.06l-35.643-10.506c-3.148-.929-5.905-2.932-7.761-5.639l-21.006-30.651c-5.469-7.978-14.508-12.742-24.181-12.742-9.674 0-18.713 4.764-24.182 12.742l-21.006 30.651c-1.855 2.707-4.612 4.71-7.761 5.638l-35.643 10.507c-9.277 2.735-16.602 9.86-19.591 19.06-2.989 9.199-1.252 19.268 4.646 26.935zm-13.04-51.749c1.482-4.56 4.969-7.951 9.567-9.307l35.643-10.508c6.447-1.9 12.091-6.001 15.892-11.545l21.006-30.651c2.71-3.955 7.014-6.223 11.809-6.223 4.794 0 9.098 2.268 11.808 6.223l21.006 30.651c3.801 5.544 9.444 9.645 15.892 11.546l35.643 10.507c4.599 1.355 8.086 4.747 9.567 9.307s.654 9.354-2.27 13.153l-22.659 29.449c-4.1 5.329-6.255 11.964-6.07 18.683l1.021 37.145c.132 4.792-2.017 9.156-5.896 11.975-3.879 2.817-8.691 3.512-13.21 1.906l-35.011-12.45c-3.167-1.126-6.494-1.689-9.821-1.689-3.328 0-6.655.564-9.822 1.689l-35.011 12.45c-4.518 1.607-9.332.911-13.21-1.906-3.879-2.818-6.027-7.183-5.896-11.975l1.021-37.145c.185-6.721-1.972-13.355-6.07-18.683l-22.659-29.449c-2.924-3.8-3.751-8.593-2.27-13.153zm361.571 136.266c-4.51-4.51-10.505-6.994-16.883-6.994-6.377 0-12.373 2.483-16.883 6.993l-33.084 33.084c-1.691 1.693-4.447 1.693-6.139 0-.82-.82-1.272-1.91-1.272-3.069s.451-2.249 1.272-3.07l33.084-33.084c9.309-9.31 9.309-24.455 0-33.765-9.308-9.307-24.453-9.309-33.765 0l-33.085 33.084c-.819.82-1.909 1.271-3.069 1.271s-2.25-.451-3.069-1.271c-1.693-1.692-1.693-4.446 0-6.139l33.084-33.084c4.51-4.51 6.993-10.506 6.993-16.883 0-6.378-2.484-12.373-6.993-16.883-9.309-9.308-24.456-9.31-33.765 0l-63.36 63.36c-22.092 22.093-28.575 53.955-19.492 81.805l-68.486 55.451-68.446-55.419c2.611-7.982 3.989-16.408 3.989-25.05 0-21.451-8.354-41.618-23.521-56.787-15.957-15.956-43.302-29.972-69.665-35.705-4.05-.875-8.042 1.689-8.923 5.735-.88 4.048 1.688 8.042 5.735 8.923 23.748 5.164 48.181 17.59 62.245 31.654 12.336 12.335 19.129 28.735 19.129 46.18 0 8.542-1.639 16.83-4.75 24.516-.075.172-.142.346-.203.522-3.24 7.81-8.017 14.982-14.176 21.141s-13.331 10.936-21.142 14.176c-.175.061-.348.127-.519.202-7.687 3.111-15.976 4.75-24.518 4.75-17.444 0-33.845-6.793-46.18-19.129-26.233-26.232-48.05-91.218-23.454-115.813 5.054-5.055 12.085-8.362 20.898-9.832 4.086-.681 6.846-4.545 6.164-8.631-.681-4.085-4.538-6.851-8.631-6.164-11.959 1.993-21.729 6.711-29.039 14.02-14.779 14.78-18.894 39.733-11.587 70.26 6.158 25.727 19.586 51.312 35.043 66.769 15.169 15.168 35.336 23.521 56.787 23.521 8.642 0 17.067-1.378 25.05-3.989l71.329 88.096c8.614 10.638 21.394 17.15 35.064 17.867.842.044 1.683.066 2.522.066 3.664 0 7.289-.432 10.816-1.242 3.571.814 7.173 1.236 10.749 1.236 14.388 0 28.301-6.419 37.62-17.928l71.371-88.149c8.089 2.648 16.564 4.031 25.107 4.03 9.521-.001 19.121-1.69 28.329-5.17 3.875-1.464 5.829-5.791 4.365-9.666-1.463-3.875-5.794-5.831-9.666-4.365-23.984 9.059-51.185 3.204-69.306-14.917-25.464-25.463-25.464-66.896 0-92.358l63.36-63.36c3.46-3.461 9.091-3.459 12.551 0 1.676 1.676 2.6 3.904 2.6 6.275 0 2.37-.924 4.6-2.601 6.275l-33.084 33.084c-7.541 7.542-7.541 19.812 0 27.354 3.653 3.652 8.511 5.664 13.677 5.664s10.023-2.012 13.677-5.664l33.085-33.084c3.46-3.461 9.092-3.46 12.55 0 3.461 3.46 3.461 9.09 0 12.551l-33.083 33.084c-3.653 3.653-5.666 8.51-5.666 13.677 0 5.166 2.012 10.023 5.665 13.677 7.541 7.541 19.811 7.541 27.354 0l33.084-33.084c1.676-1.677 3.905-2.601 6.275-2.601 2.371 0 4.6.924 6.275 2.601 3.461 3.46 3.461 9.09 0 12.55l-59.006 59.006c-2.929 2.93-2.929 7.678 0 10.608 2.93 2.928 7.678 2.928 10.608 0l59.006-59.006c9.308-9.309 9.308-24.455-.001-33.763zm-252.102 197.911c-6.677 6.679-15.914 10.216-25.346 9.729-9.431-.494-18.248-4.987-24.191-12.327l-68.755-84.917c6.332-3.563 12.226-7.995 17.504-13.273s9.71-11.172 13.273-17.504l84.917 68.755c7.34 5.942 11.833 14.76 12.327 24.19.494 9.432-3.052 18.67-9.729 25.347zm75.169-100.787c5.281 5.281 11.199 9.692 17.533 13.236l-68.784 84.954c-2.375 2.933-5.192 5.368-8.288 7.296 6.398-8.88 9.66-19.763 9.079-30.83-.717-13.67-7.229-26.449-17.867-35.064l-7.731-6.26 62.808-50.854c3.516 6.278 7.917 12.189 13.25 17.522zm-177.911 86.891-24.371-7.184c-1.633-.482-3.061-1.52-4.023-2.923l-14.364-20.96c-4.183-6.102-11.095-9.744-18.492-9.744-7.396 0-14.309 3.643-18.491 9.744l-14.364 20.961c-.962 1.402-2.39 2.44-4.022 2.921l-24.371 7.185c-7.096 2.091-12.696 7.539-14.982 14.574s-.958 14.735 3.553 20.599l15.494 20.137c1.038 1.35 1.584 3.028 1.537 4.728l-.698 25.4c-.203 7.395 3.248 14.404 9.232 18.752 3.884 2.822 8.504 4.282 13.175 4.282 2.525 0 5.066-.427 7.512-1.297l23.941-8.514c1.604-.57 3.367-.57 4.971 0l23.94 8.514c6.972 2.48 14.705 1.361 20.688-2.985 5.983-4.348 9.435-11.358 9.232-18.752l-.699-25.399c-.046-1.701.499-3.381 1.536-4.728l15.495-20.138c4.511-5.863 5.839-13.563 3.553-20.6-2.287-7.034-7.888-12.482-14.982-14.573zm-.46 26.027-15.496 20.139c-3.133 4.073-4.781 9.146-4.641 14.285l.699 25.4c.068 2.483-1.045 4.744-3.055 6.204-2.009 1.461-4.505 1.819-6.846.988l-23.941-8.514c-2.422-.861-4.966-1.292-7.51-1.292-2.545 0-5.09.431-7.511 1.292l-23.941 8.514c-2.34.833-4.834.471-6.845-.987-2.01-1.46-3.123-3.722-3.055-6.205l.698-25.399c.142-5.137-1.506-10.211-4.642-14.287l-15.495-20.138c-1.515-1.969-1.943-4.453-1.176-6.816.768-2.362 2.574-4.119 4.958-4.821l24.373-7.186c4.931-1.454 9.246-4.59 12.151-8.829l14.364-20.96c1.404-2.049 3.635-3.225 6.118-3.225 2.484 0 4.715 1.176 6.119 3.225l14.364 20.959c2.905 4.24 7.221 7.376 12.153 8.831l24.373 7.185c2.382.702 4.188 2.459 4.956 4.821.771 2.361.343 4.846-1.172 6.816z"/></svg>