<svg id="Layer_1" enable-background="new 0 0 512 512" viewBox="0 0 512 512" xmlns="http://www.w3.org/2000/svg"><g><path d="m131.75 205.047v-10.91c0-5.015-2.507-9.699-6.679-12.481l-9.938-6.625c-4.173-2.782-6.679-7.465-6.679-12.481v-38.566h-46.595v38.566c0 5.015-2.507 9.699-6.679 12.481l-9.938 6.625c-4.173 2.782-6.679 7.465-6.679 12.481v209.41l124.25 15.531z" fill="#26a6fe"/><path d="m131.75 205.047v-10.91c0-5.015-2.507-9.699-6.679-12.481l-9.938-6.625c-1.391-.927-2.597-2.067-3.587-3.359.135.808.204 1.632.204 2.465v200.235l21.382 23.496-94.569-11.821v17.5l124.25 15.531z" fill="#0593fc"/><ellipse cx="435.89" cy="244.922" fill="#fe9738" rx="145.553" ry="48.518" transform="matrix(.342 -.94 .94 .342 56.656 570.756)"/><path d="m485.672 108.147c-1.787-.65-3.662-.983-5.613-1.014 7.977 27.237 1.595 78.96-18.577 134.383-3.857 10.597-8.013 20.767-12.379 30.395-.808 1.783-2.593 2.918-4.551 2.918h-68.245c-13.086 55.418-10.054 99.642 9.801 106.869 25.179 9.165 67.88-44.642 95.374-120.181 27.494-75.54 29.37-144.205 4.19-153.37z" fill="#fe860a"/><path d="m488.969 325.891-28.99 101.466c-1.227 4.293-5.15 7.253-9.615 7.253h-39.051l-62.125-108.719 77.656-15.531z" fill="#e53950"/><path d="m499.5 325.891h-150.312v-31.062h150.312c2.761 0 5 2.239 5 5v21.062c0 2.761-2.239 5-5 5z" fill="#f07281"/><path d="m499.5 294.828h-20c2.761 0 5 2.239 5 5v21.062c0 2.761-2.239 5-5 5h20c2.761 0 5-2.239 5-5v-21.062c0-2.761-2.239-5-5-5z" fill="#eb5569"/><path d="m131.75 263.766-53.082-26.541c-5.542-2.771-9.043-8.436-9.043-14.632 0-10.643 10.002-18.452 20.327-15.87l41.798 10.45 15.531 15.531z" fill="#c4e2ff"/><path d="m131.75 263.766 6.605-13.21-4.547-31.326-2.058-2.058-20-5v41.594z" fill="#b3dafe"/><path d="m380.25 263.766 53.082-26.541c5.542-2.771 9.043-8.436 9.043-14.632 0-10.643-10.002-18.452-20.327-15.87l-41.798 10.45-15.531 15.531z" fill="#8ac9fe"/><path d="m158.344 434.609h159.781l62.125-77.656v-139.781l-124.25-15.531-124.25 15.531v132.016z" fill="#c4e2ff"/><path d="m152.117 414.609 6.227 20h159.781l16-20z" fill="#b3dafe"/><path d="m360.25 214.672v167.281l20-25v-139.781z" fill="#b3dafe"/><circle cx="52.984" cy="392.453" fill="#00c27a" r="26.625"/><circle cx="112.891" cy="352.516" fill="#6ed5a1" r="26.625"/><circle cx="132.859" cy="392.453" fill="#00c27a" r="26.625"/><circle cx="92.922" cy="392.453" fill="#46cc8d" r="26.625"/><path d="m330.25 155.047h-148.5c-27.614 0-50 22.386-50 50v12.125h248.5v-12.125c0-27.614-22.386-50-50-50z" fill="#c4e2ff"/><path d="m354.168 161.128c3.878 7.105 6.082 15.254 6.082 23.918v7.125c0 2.761-2.239 5-5 5h-222.882c-.406 2.565-.618 5.195-.618 7.875v12.125h248.5v-12.125c0-18.949-10.542-35.437-26.082-43.918z" fill="#b3dafe"/><path d="m108.453 87.391c0-5.523-4.477-10-10-10h-26.594c-5.523 0-10 4.477-10 10v36.594h46.594z" fill="#eb5569"/><path d="m98.453 77.391h-5v26.594c0 2.761-2.239 5-5 5h-26.594v15h46.594v-36.594c0-5.523-4.477-10-10-10z" fill="#e53950"/><path d="m289.73 388.016c3.916 15.725 12.042 30.241 23.693 41.892l4.702 4.702h93.188l4.702-4.702c11.651-11.651 19.777-26.167 23.693-41.892l-59.458-15.531z" fill="#46cc8d"/><path d="m415.149 381.6c-4.467 10.465-10.922 20.094-19.134 28.307l-3.238 3.238c-.938.938-2.209 1.464-3.536 1.464h-88.093c3.495 5.489 7.601 10.624 12.275 15.298l4.702 4.702h93.188l4.702-4.702c11.651-11.651 19.777-26.167 23.693-41.892z" fill="#00c27a"/><path d="m442.375 366.267v-4.314c0-2.761-2.239-5-5-5h-145.313c-2.761 0-5 2.239-5 5v4.314c0 7.393.91 14.692 2.667 21.748h149.978c1.758-7.055 2.668-14.354 2.668-21.748z" fill="#26a6fe"/><path d="m437.375 356.953h-15.637c-1.302 10.89-4.58 21.413-9.632 31.062h27.602c1.757-7.056 2.667-14.355 2.667-21.748v-4.314c0-2.761-2.239-5-5-5z" fill="#0593fc"/><path d="m158.344 434.609h-130.844c-11.046 0-20-8.954-20-20v-8.562c0-1.381 1.119-2.5 2.5-2.5h163.344c2.761 0 5 2.239 5 5v6.062c0 11.046-8.955 20-20 20z" fill="#eb5569"/><path d="m173.344 403.547h-20c2.761 0 5 2.239 5 5v6.062c0 11.046-8.954 20-20 20h20c11.046 0 20-8.954 20-20v-6.062c0-2.762-2.239-5-5-5z" fill="#e53950"/><path d="m499.5 287.328h-20.178c3.25-7.568 6.333-15.352 9.207-23.247 1.782-4.896 3.481-9.848 5.088-14.826.123-.31.225-.628.306-.952 4.52-14.115 8.296-28.434 11.124-42.332.287-.763.451-1.572.479-2.395 2.684-13.671 4.433-26.895 5.051-39.071.145-.731.181-1.486.101-2.241 1.231-31.038-5.131-54.865-22.441-61.165-32.064-11.659-72.714 46.072-97.611 105.748l-2.876.719v-2.519c0-31.706-25.794-57.5-57.5-57.5h-20.156v-3.562c0-15.163-12.337-27.5-27.5-27.5h-53.188c-15.163 0-27.5 12.337-27.5 27.5v3.562h-20.156c-21.584 0-40.428 11.954-50.26 29.589-.711-.615-1.465-1.19-2.259-1.72l-9.938-6.625c-2.091-1.395-3.34-3.728-3.34-6.241v-31.065h.266c4.143 0 7.5-3.357 7.5-7.5s-3.357-7.5-7.5-7.5h-.266v-29.094c0-9.649-7.851-17.5-17.5-17.5h-26.594c-9.649 0-17.5 7.851-17.5 17.5v29.094h-.266c-4.143 0-7.5 3.357-7.5 7.5s3.357 7.5 7.5 7.5h.266v31.065c0 2.514-1.249 4.847-3.34 6.241l-9.938 6.625c-6.274 4.183-10.02 11.182-10.02 18.721v26.654c0 4.143 3.357 7.5 7.5 7.5s7.5-3.357 7.5-7.5v-26.654c0-2.513 1.249-4.846 3.34-6.24l9.938-6.625c6.274-4.183 10.02-11.182 10.02-18.722v-31.065h31.594v31.065c0 7.54 3.745 14.539 10.02 18.722l9.938 6.625c2.091 1.395 3.34 3.728 3.34 6.24v13.429l-32.479-8.12c-7.178-1.793-14.639-.212-20.469 4.34-5.832 4.553-9.177 11.408-9.177 18.807 0 9.095 5.054 17.271 13.188 21.34l48.936 24.467v51.934c-3.555-1.259-7.379-1.944-11.359-1.944-18.816 0-34.125 15.309-34.125 34.125 0 2.851.358 5.684 1.056 8.428-2.444 1.02-4.745 2.316-6.863 3.849-5.773-4.16-12.772-6.464-19.974-6.464-2.371 0-4.686.243-6.922.706v-103.243c0-4.143-3.357-7.5-7.5-7.5s-7.5 3.357-7.5 7.5v110.53c-7.456 6.265-12.203 15.655-12.203 26.132 0 1.208.062 2.407.186 3.594h-9.046c-5.514 0-10 4.486-10 10v8.562c0 15.163 12.337 27.5 27.5 27.5h422.863c7.772 0 14.691-5.22 16.826-12.692l27.437-96.026h4.874c6.893 0 12.5-5.607 12.5-12.5v-21.062c0-6.893-5.607-12.501-12.5-12.501zm-427.641-202.437h26.594c1.379 0 2.5 1.121 2.5 2.5v29.094h-31.594v-29.094c0-1.379 1.121-2.5 2.5-2.5zm376.323 52.036c13.996-16.475 27.051-24.603 34.925-21.732 7.952 2.895 13.071 18.403 12.686 43.048l-40.946 19.093c-3.754 1.75-5.378 6.212-3.627 9.967 1.755 3.764 6.222 5.374 9.967 3.627l33.578-15.657c-.717 7.111-1.814 14.749-3.335 22.859l-42.046 19.606c-1.127-5.49-4.156-10.415-8.685-13.951-5.831-4.552-13.29-6.132-20.469-4.34l-11.28 2.82c11.842-26.359 25.539-49.222 39.232-65.34zm-13.307 229.341c0 4.774-.416 9.546-1.24 14.248h-68.532c-4.143 0-7.5 3.357-7.5 7.5s3.357 7.5 7.5 7.5h64.413c-4.128 10.883-10.525 20.809-18.805 29.088l-2.505 2.506h-86.975l-2.505-2.506c-8.28-8.279-14.677-18.204-18.805-29.088h29.181c4.143 0 7.5-3.357 7.5-7.5s-3.357-7.5-7.5-7.5h-33.3c-.824-4.702-1.24-9.474-1.24-14.248v-1.814h140.312v1.814zm-142.813-16.815c-6.893 0-12.5 5.607-12.5 12.5v4.314c0 7.934.972 15.86 2.89 23.561 3.399 13.647 9.701 26.357 18.424 37.281h-118.041c1.923-3.752 3.009-8.002 3.009-12.5v-6.062c0-6.893-5.607-12.5-12.5-12.5h-6.546c.124-1.187.186-2.386.186-3.594 0-14.177-8.691-26.363-21.025-31.51.698-2.744 1.056-5.578 1.056-8.428 0-8.211-2.916-15.755-7.766-21.649v-106.194h233.5v124.781zm-217.93 46.594c-.223-1.174-.335-2.375-.335-3.594 0-10.546 8.579-19.125 19.125-19.125s19.125 8.579 19.125 19.125c0 1.219-.112 2.419-.335 3.594zm48.747-19.924c2.965-1.823 6.383-2.795 9.98-2.795 10.546 0 19.125 8.579 19.125 19.125 0 1.219-.112 2.419-.335 3.594h-24.789c.124-1.187.186-2.385.186-3.594.001-5.912-1.511-11.477-4.167-16.33zm300.989-162.124c2.665-.67 5.434-.081 7.6 1.61 2.165 1.691 3.407 4.236 3.407 6.983 0 3.377-1.877 6.413-4.897 7.924l-42.228 21.114v-28.602zm-206.962-70.015c0-6.893 5.607-12.5 12.5-12.5h53.188c6.893 0 12.5 5.607 12.5 12.5v3.562h-78.188zm-35.156 18.563h148.5c23.435 0 42.5 19.065 42.5 42.5v4.625h-233.5v-4.625c0-23.435 19.065-42.5 42.5-42.5zm-99.728 67.97c-3.021-1.511-4.897-4.547-4.897-7.924 0-2.747 1.242-5.292 3.407-6.983 2.166-1.69 4.937-2.279 7.6-1.61l36.118 9.029v28.602zm30.869 102.874c10.546 0 19.125 8.579 19.125 19.125 0 1.995-.312 3.975-.916 5.858-6.577.343-12.913 2.599-18.214 6.418-5.172-3.743-11.43-6.074-18.204-6.419-.603-1.883-.916-3.862-.916-5.857 0-10.546 8.579-19.125 19.125-19.125zm-79.032 59.062c0-10.546 8.579-19.125 19.125-19.125 3.598 0 7.015.972 9.98 2.795-2.656 4.853-4.167 10.418-4.167 16.33 0 1.208.062 2.407.186 3.594h-24.788c-.223-1.175-.336-2.375-.336-3.594zm-18.859 22.156v-3.562h155.844v3.562c0 6.893-5.607 12.5-12.5 12.5h-130.844c-6.893 0-12.5-5.607-12.5-12.5zm437.768 10.687c-.306 1.067-1.294 1.813-2.404 1.813h-21.802c8.722-10.924 15.024-23.635 18.424-37.281 1.918-7.7 2.89-15.627 2.89-23.561v-4.314c0-6.893-5.607-12.5-12.5-12.5h-49.626v-16.062h91.275zm44.232-106.905h-109.25v-16.062h28.322c4.143 0 7.5-3.357 7.5-7.5s-3.357-7.5-7.5-7.5h-28.322v-18.927l48.937-24.469c3.767-1.884 6.873-4.649 9.123-7.979l41.616-19.406c-1.93 7.842-4.223 16.03-6.909 24.525l-34.087 15.896c-3.754 1.75-5.378 6.213-3.627 9.967 1.272 2.729 3.977 4.332 6.802 4.332 1.062 0 2.14-.227 3.165-.705l20.998-9.792c-3.35 9.079-6.982 17.988-10.825 26.557h-11.869c-4.143 0-7.5 3.357-7.5 7.5s3.357 7.5 7.5 7.5h45.926z"/></g><g/><g/><g/><g/><g/><g/><g/><g/><g/><g/><g/><g/><g/><g/><g/></svg>